<mxfile host="app.diagrams.net" agent="Mozilla/5.0 (Windows NT 10.0; Win64; x64) AppleWebKit/537.36 (KHTML, like Gecko) Chrome/133.0.0.0 Safari/537.36 Edg/133.0.0.0" version="26.0.16">
  <diagram name="Page-1" id="ZIy0a1CNrfJdWnZxPhxz">
    <mxGraphModel dx="2608" dy="2756" grid="1" gridSize="10" guides="1" tooltips="1" connect="1" arrows="1" fold="1" page="1" pageScale="1" pageWidth="1200" pageHeight="1920" math="0" shadow="0">
      <root>
        <mxCell id="0" />
        <mxCell id="1" parent="0" />
        <mxCell id="iqInRDiMmIJK_WrabG9Z-1" value="crm_cust_info" style="swimlane;fontStyle=0;childLayout=stackLayout;horizontal=1;startSize=30;horizontalStack=0;resizeParent=1;resizeParentMax=0;resizeLast=0;collapsible=1;marginBottom=0;whiteSpace=wrap;html=1;rounded=1;fillColor=#dae8fc;strokeColor=#6c8ebf;" parent="1" vertex="1">
          <mxGeometry x="40" y="140" width="200" height="90" as="geometry" />
        </mxCell>
        <mxCell id="iqInRDiMmIJK_WrabG9Z-2" value="cus_id" style="text;strokeColor=none;fillColor=none;align=left;verticalAlign=middle;spacingLeft=4;spacingRight=4;overflow=hidden;points=[[0,0.5],[1,0.5]];portConstraint=eastwest;rotatable=0;whiteSpace=wrap;html=1;" parent="iqInRDiMmIJK_WrabG9Z-1" vertex="1">
          <mxGeometry y="30" width="200" height="30" as="geometry" />
        </mxCell>
        <mxCell id="iqInRDiMmIJK_WrabG9Z-23" value="cus_key" style="text;strokeColor=none;fillColor=none;align=left;verticalAlign=middle;spacingLeft=4;spacingRight=4;overflow=hidden;points=[[0,0.5],[1,0.5]];portConstraint=eastwest;rotatable=0;whiteSpace=wrap;html=1;" parent="iqInRDiMmIJK_WrabG9Z-1" vertex="1">
          <mxGeometry y="60" width="200" height="30" as="geometry" />
        </mxCell>
        <mxCell id="iqInRDiMmIJK_WrabG9Z-5" value="&lt;b&gt;&lt;font style=&quot;font-size: 18px;&quot;&gt;Customer information&lt;/font&gt;&lt;/b&gt;" style="text;html=1;align=center;verticalAlign=middle;whiteSpace=wrap;rounded=0;" parent="1" vertex="1">
          <mxGeometry x="55" y="120" width="190" height="30" as="geometry" />
        </mxCell>
        <mxCell id="iqInRDiMmIJK_WrabG9Z-6" value="crm_prd_info" style="swimlane;fontStyle=0;childLayout=stackLayout;horizontal=1;startSize=30;horizontalStack=0;resizeParent=1;resizeParentMax=0;resizeLast=0;collapsible=1;marginBottom=0;whiteSpace=wrap;html=1;rounded=1;fillColor=#dae8fc;strokeColor=#6c8ebf;" parent="1" vertex="1">
          <mxGeometry x="40" y="340" width="200" height="60" as="geometry" />
        </mxCell>
        <mxCell id="iqInRDiMmIJK_WrabG9Z-7" value="prd_key" style="text;strokeColor=none;fillColor=none;align=left;verticalAlign=middle;spacingLeft=4;spacingRight=4;overflow=hidden;points=[[0,0.5],[1,0.5]];portConstraint=eastwest;rotatable=0;whiteSpace=wrap;html=1;" parent="iqInRDiMmIJK_WrabG9Z-6" vertex="1">
          <mxGeometry y="30" width="200" height="30" as="geometry" />
        </mxCell>
        <mxCell id="iqInRDiMmIJK_WrabG9Z-8" value="&lt;b&gt;&lt;font style=&quot;font-size: 18px;&quot;&gt;Current &amp;amp; history information&lt;/font&gt;&lt;/b&gt;" style="text;html=1;align=center;verticalAlign=middle;whiteSpace=wrap;rounded=0;" parent="1" vertex="1">
          <mxGeometry x="10" y="300" width="250" height="30" as="geometry" />
        </mxCell>
        <mxCell id="iqInRDiMmIJK_WrabG9Z-18" style="edgeStyle=orthogonalEdgeStyle;rounded=0;orthogonalLoop=1;jettySize=auto;html=1;exitX=1;exitY=0.25;exitDx=0;exitDy=0;entryX=0;entryY=0.5;entryDx=0;entryDy=0;" parent="1" source="iqInRDiMmIJK_WrabG9Z-9" target="iqInRDiMmIJK_WrabG9Z-2" edge="1">
          <mxGeometry relative="1" as="geometry" />
        </mxCell>
        <mxCell id="iqInRDiMmIJK_WrabG9Z-9" value="crm_sales_details" style="swimlane;fontStyle=0;childLayout=stackLayout;horizontal=1;startSize=30;horizontalStack=0;resizeParent=1;resizeParentMax=0;resizeLast=0;collapsible=1;marginBottom=0;whiteSpace=wrap;html=1;rounded=1;fillColor=#dae8fc;strokeColor=#6c8ebf;" parent="1" vertex="1">
          <mxGeometry x="-380" y="230" width="200" height="90" as="geometry" />
        </mxCell>
        <mxCell id="iqInRDiMmIJK_WrabG9Z-10" value="sls_prd_key" style="text;strokeColor=none;fillColor=none;align=left;verticalAlign=middle;spacingLeft=4;spacingRight=4;overflow=hidden;points=[[0,0.5],[1,0.5]];portConstraint=eastwest;rotatable=0;whiteSpace=wrap;html=1;" parent="iqInRDiMmIJK_WrabG9Z-9" vertex="1">
          <mxGeometry y="30" width="200" height="30" as="geometry" />
        </mxCell>
        <mxCell id="iqInRDiMmIJK_WrabG9Z-12" value="sls_cus_id" style="text;strokeColor=none;fillColor=none;align=left;verticalAlign=middle;spacingLeft=4;spacingRight=4;overflow=hidden;points=[[0,0.5],[1,0.5]];portConstraint=eastwest;rotatable=0;whiteSpace=wrap;html=1;" parent="iqInRDiMmIJK_WrabG9Z-9" vertex="1">
          <mxGeometry y="60" width="200" height="30" as="geometry" />
        </mxCell>
        <mxCell id="iqInRDiMmIJK_WrabG9Z-11" value="&lt;span style=&quot;font-size: 18px;&quot;&gt;&lt;b&gt;Transactional records about sales &amp;amp; orders&lt;/b&gt;&lt;/span&gt;" style="text;html=1;align=center;verticalAlign=middle;whiteSpace=wrap;rounded=0;" parent="1" vertex="1">
          <mxGeometry x="-390" y="190" width="250" height="30" as="geometry" />
        </mxCell>
        <mxCell id="iqInRDiMmIJK_WrabG9Z-15" style="edgeStyle=orthogonalEdgeStyle;rounded=0;orthogonalLoop=1;jettySize=auto;html=1;exitX=1;exitY=0.5;exitDx=0;exitDy=0;" parent="1" source="iqInRDiMmIJK_WrabG9Z-10" target="iqInRDiMmIJK_WrabG9Z-7" edge="1">
          <mxGeometry relative="1" as="geometry" />
        </mxCell>
        <mxCell id="iqInRDiMmIJK_WrabG9Z-19" value="erp_CUST_AZ12" style="swimlane;fontStyle=0;childLayout=stackLayout;horizontal=1;startSize=30;horizontalStack=0;resizeParent=1;resizeParentMax=0;resizeLast=0;collapsible=1;marginBottom=0;whiteSpace=wrap;html=1;rounded=1;fillColor=#fff2cc;strokeColor=#d6b656;" parent="1" vertex="1">
          <mxGeometry x="600" y="125" width="200" height="60" as="geometry" />
        </mxCell>
        <mxCell id="iqInRDiMmIJK_WrabG9Z-67" style="edgeStyle=orthogonalEdgeStyle;rounded=0;orthogonalLoop=1;jettySize=auto;html=1;startArrow=none;startFill=0;endArrow=none;" parent="iqInRDiMmIJK_WrabG9Z-19" source="iqInRDiMmIJK_WrabG9Z-20" edge="1">
          <mxGeometry relative="1" as="geometry">
            <mxPoint x="-160" y="250" as="targetPoint" />
          </mxGeometry>
        </mxCell>
        <mxCell id="iqInRDiMmIJK_WrabG9Z-20" value="cid" style="text;strokeColor=none;fillColor=none;align=left;verticalAlign=middle;spacingLeft=4;spacingRight=4;overflow=hidden;points=[[0,0.5],[1,0.5]];portConstraint=eastwest;rotatable=0;whiteSpace=wrap;html=1;" parent="iqInRDiMmIJK_WrabG9Z-19" vertex="1">
          <mxGeometry y="30" width="200" height="30" as="geometry" />
        </mxCell>
        <mxCell id="iqInRDiMmIJK_WrabG9Z-21" value="&lt;b&gt;&lt;font style=&quot;font-size: 18px;&quot;&gt;Extra Customer information&lt;/font&gt;&lt;/b&gt;" style="text;html=1;align=center;verticalAlign=middle;whiteSpace=wrap;rounded=0;" parent="1" vertex="1">
          <mxGeometry x="600" y="80" width="190" height="30" as="geometry" />
        </mxCell>
        <mxCell id="iqInRDiMmIJK_WrabG9Z-26" value="erp_LOC_A101" style="swimlane;fontStyle=0;childLayout=stackLayout;horizontal=1;startSize=30;horizontalStack=0;resizeParent=1;resizeParentMax=0;resizeLast=0;collapsible=1;marginBottom=0;whiteSpace=wrap;html=1;rounded=1;fillColor=#fff2cc;strokeColor=#d6b656;" parent="1" vertex="1">
          <mxGeometry x="600" y="330" width="200" height="60" as="geometry" />
        </mxCell>
        <mxCell id="iqInRDiMmIJK_WrabG9Z-27" value="cid" style="text;strokeColor=none;fillColor=none;align=left;verticalAlign=middle;spacingLeft=4;spacingRight=4;overflow=hidden;points=[[0,0.5],[1,0.5]];portConstraint=eastwest;rotatable=0;whiteSpace=wrap;html=1;" parent="iqInRDiMmIJK_WrabG9Z-26" vertex="1">
          <mxGeometry y="30" width="200" height="30" as="geometry" />
        </mxCell>
        <mxCell id="iqInRDiMmIJK_WrabG9Z-28" value="&lt;span style=&quot;font-size: 18px;&quot;&gt;&lt;b&gt;location of customer&lt;/b&gt;&lt;/span&gt;" style="text;html=1;align=center;verticalAlign=middle;whiteSpace=wrap;rounded=0;" parent="1" vertex="1">
          <mxGeometry x="595" y="300" width="190" height="30" as="geometry" />
        </mxCell>
        <mxCell id="iqInRDiMmIJK_WrabG9Z-40" value="erp_PX_CAT_G1V2" style="swimlane;fontStyle=0;childLayout=stackLayout;horizontal=1;startSize=30;horizontalStack=0;resizeParent=1;resizeParentMax=0;resizeLast=0;collapsible=1;marginBottom=0;whiteSpace=wrap;html=1;rounded=1;fillColor=#fff2cc;strokeColor=#d6b656;" parent="1" vertex="1">
          <mxGeometry x="595" y="490" width="200" height="60" as="geometry" />
        </mxCell>
        <mxCell id="iqInRDiMmIJK_WrabG9Z-41" value="id" style="text;strokeColor=none;fillColor=none;align=left;verticalAlign=middle;spacingLeft=4;spacingRight=4;overflow=hidden;points=[[0,0.5],[1,0.5]];portConstraint=eastwest;rotatable=0;whiteSpace=wrap;html=1;" parent="iqInRDiMmIJK_WrabG9Z-40" vertex="1">
          <mxGeometry y="30" width="200" height="30" as="geometry" />
        </mxCell>
        <mxCell id="iqInRDiMmIJK_WrabG9Z-42" value="&lt;span style=&quot;font-size: 18px;&quot;&gt;&lt;b&gt;Product categories&lt;/b&gt;&lt;/span&gt;" style="text;html=1;align=center;verticalAlign=middle;whiteSpace=wrap;rounded=0;" parent="1" vertex="1">
          <mxGeometry x="600" y="450" width="190" height="30" as="geometry" />
        </mxCell>
        <mxCell id="iqInRDiMmIJK_WrabG9Z-58" style="edgeStyle=orthogonalEdgeStyle;rounded=0;orthogonalLoop=1;jettySize=auto;html=1;entryX=1;entryY=0.5;entryDx=0;entryDy=0;" parent="1" source="iqInRDiMmIJK_WrabG9Z-27" target="iqInRDiMmIJK_WrabG9Z-23" edge="1">
          <mxGeometry relative="1" as="geometry">
            <mxPoint x="280" y="260" as="targetPoint" />
            <Array as="points">
              <mxPoint x="440" y="375" />
              <mxPoint x="440" y="245" />
            </Array>
          </mxGeometry>
        </mxCell>
        <mxCell id="iqInRDiMmIJK_WrabG9Z-60" value="" style="rounded=1;whiteSpace=wrap;html=1;fillColor=none;dashed=1;" parent="1" vertex="1">
          <mxGeometry x="-430" y="80" width="720" height="510" as="geometry" />
        </mxCell>
        <mxCell id="iqInRDiMmIJK_WrabG9Z-70" style="edgeStyle=orthogonalEdgeStyle;rounded=0;orthogonalLoop=1;jettySize=auto;html=1;entryX=0.889;entryY=0.608;entryDx=0;entryDy=0;entryPerimeter=0;" parent="1" source="iqInRDiMmIJK_WrabG9Z-40" edge="1">
          <mxGeometry relative="1" as="geometry">
            <mxPoint x="210.07999999999993" y="390.0799999999999" as="targetPoint" />
            <Array as="points">
              <mxPoint x="443" y="510" />
              <mxPoint x="443" y="400" />
              <mxPoint x="210" y="400" />
            </Array>
          </mxGeometry>
        </mxCell>
        <mxCell id="iqInRDiMmIJK_WrabG9Z-72" value="" style="rounded=1;whiteSpace=wrap;html=1;fillColor=none;dashed=1;" parent="1" vertex="1">
          <mxGeometry x="370" y="30" width="610" height="580" as="geometry" />
        </mxCell>
        <mxCell id="iqInRDiMmIJK_WrabG9Z-73" value="&lt;font style=&quot;font-size: 40px;&quot;&gt;&lt;b&gt;ERP&lt;/b&gt;&lt;/font&gt;" style="rounded=1;whiteSpace=wrap;html=1;fillColor=#ffe6cc;strokeColor=#d79b00;" parent="1" vertex="1">
          <mxGeometry x="550" y="-10" width="270" height="60" as="geometry" />
        </mxCell>
        <mxCell id="PHHGDDIyIbg26NahSOMF-1" value="&lt;span style=&quot;font-size: 20px;&quot;&gt;&lt;b&gt;Product&lt;/b&gt;&lt;/span&gt;" style="text;html=1;strokeColor=#b85450;fillColor=#f8cecc;align=center;verticalAlign=middle;whiteSpace=wrap;overflow=hidden;" vertex="1" parent="1">
          <mxGeometry x="40" y="400" width="200" height="40" as="geometry" />
        </mxCell>
        <mxCell id="PHHGDDIyIbg26NahSOMF-2" value="&lt;span style=&quot;font-size: 20px;&quot;&gt;&lt;b&gt;Product&lt;/b&gt;&lt;/span&gt;" style="text;html=1;strokeColor=#b85450;fillColor=#f8cecc;align=center;verticalAlign=middle;whiteSpace=wrap;overflow=hidden;" vertex="1" parent="1">
          <mxGeometry x="605" y="550" width="190" height="40" as="geometry" />
        </mxCell>
        <mxCell id="PHHGDDIyIbg26NahSOMF-3" value="&lt;span style=&quot;font-size: 20px;&quot;&gt;&lt;b&gt;Customer&lt;/b&gt;&lt;/span&gt;" style="text;html=1;strokeColor=#82b366;fillColor=#d5e8d4;align=center;verticalAlign=middle;whiteSpace=wrap;overflow=hidden;" vertex="1" parent="1">
          <mxGeometry x="610" y="390" width="190" height="40" as="geometry" />
        </mxCell>
        <mxCell id="PHHGDDIyIbg26NahSOMF-4" value="&lt;span style=&quot;font-size: 20px;&quot;&gt;&lt;b&gt;Customer&lt;/b&gt;&lt;/span&gt;" style="text;html=1;strokeColor=#82b366;fillColor=#d5e8d4;align=center;verticalAlign=middle;whiteSpace=wrap;overflow=hidden;" vertex="1" parent="1">
          <mxGeometry x="45" y="230" width="190" height="40" as="geometry" />
        </mxCell>
        <mxCell id="PHHGDDIyIbg26NahSOMF-5" value="&lt;span style=&quot;font-size: 20px;&quot;&gt;&lt;b&gt;Customer&lt;/b&gt;&lt;/span&gt;" style="text;html=1;strokeColor=#82b366;fillColor=#d5e8d4;align=center;verticalAlign=middle;whiteSpace=wrap;overflow=hidden;" vertex="1" parent="1">
          <mxGeometry x="605" y="185" width="190" height="40" as="geometry" />
        </mxCell>
        <mxCell id="iqInRDiMmIJK_WrabG9Z-50" value="&lt;font style=&quot;font-size: 40px;&quot;&gt;&lt;b&gt;CRM&lt;/b&gt;&lt;/font&gt;" style="rounded=1;whiteSpace=wrap;html=1;strokeColor=none;fillColor=#dae8fc;" parent="1" vertex="1">
          <mxGeometry x="-205" y="40" width="270" height="60" as="geometry" />
        </mxCell>
        <mxCell id="PHHGDDIyIbg26NahSOMF-7" value="&lt;span style=&quot;font-size: 20px;&quot;&gt;&lt;b&gt;Sales&lt;/b&gt;&lt;/span&gt;" style="text;html=1;strokeColor=#9673a6;fillColor=#e1d5e7;align=center;verticalAlign=middle;whiteSpace=wrap;overflow=hidden;" vertex="1" parent="1">
          <mxGeometry x="-380" y="320" width="200" height="40" as="geometry" />
        </mxCell>
      </root>
    </mxGraphModel>
  </diagram>
</mxfile>
